<svg width="24" height="12" viewBox="0 0 24 12" fill="none" xmlns="http://www.w3.org/2000/svg">
<path d="M0.274981 6.68502C0.275263 6.68531 0.275497 6.68565 0.275825 6.68594L5.17445 11.7182C5.54143 12.0952 6.13501 12.0938 6.50031 11.7149C6.86556 11.3361 6.86415 10.7234 6.49717 10.3463L3.20823 6.96774L23.0625 6.96774C23.5803 6.96774 24 6.53448 24 6C24 5.46551 23.5803 5.03226 23.0625 5.03226L3.20828 5.03226L6.49712 1.65367C6.8641 1.27664 6.86551 0.663916 6.50026 0.285093C6.13496 -0.0938264 5.54134 -0.0951324 5.1744 0.281803L0.275778 5.31407C0.275497 5.31436 0.275262 5.31469 0.274934 5.31498C-0.0922376 5.69327 -0.0910653 6.30798 0.274981 6.68502Z" fill="#FF6B08"/>
</svg>
